<svg width="4" height="16" viewBox="0 0 4 16" fill="none" xmlns="http://www.w3.org/2000/svg">
<path d="M0.970093 13.9206C0.970093 14.4622 1.40914 14.9012 1.95074 14.9012C2.49234 14.9012 2.93139 14.4622 2.93139 13.9206C2.93139 13.379 2.49234 12.9399 1.95074 12.9399C1.40914 12.9399 0.970093 13.379 0.970093 13.9206Z" fill="#E6E6E6"/>
<path d="M0.970093 8.03667C0.970093 8.57826 1.40914 9.01732 1.95074 9.01732C2.49234 9.01732 2.93139 8.57826 2.93139 8.03667C2.93139 7.49507 2.49234 7.05602 1.95074 7.05602C1.40914 7.05602 0.970093 7.49507 0.970093 8.03667Z" fill="#E6E6E6"/>
<path d="M0.970093 2.15277C0.970093 2.69437 1.40914 3.13342 1.95074 3.13342C2.49234 3.13342 2.93139 2.69437 2.93139 2.15277C2.93139 1.61117 2.49234 1.17212 1.95074 1.17212C1.40914 1.17212 0.970093 1.61117 0.970093 2.15277Z" fill="#E6E6E6"/>
<path d="M0.970093 13.9206C0.970093 14.4622 1.40914 14.9012 1.95074 14.9012C2.49234 14.9012 2.93139 14.4622 2.93139 13.9206C2.93139 13.379 2.49234 12.9399 1.95074 12.9399C1.40914 12.9399 0.970093 13.379 0.970093 13.9206Z" stroke="#E6E6E6" stroke-width="1.331" stroke-linecap="round" stroke-linejoin="round"/>
<path d="M0.970093 8.03667C0.970093 8.57826 1.40914 9.01732 1.95074 9.01732C2.49234 9.01732 2.93139 8.57826 2.93139 8.03667C2.93139 7.49507 2.49234 7.05602 1.95074 7.05602C1.40914 7.05602 0.970093 7.49507 0.970093 8.03667Z" stroke="#E6E6E6" stroke-width="1.331" stroke-linecap="round" stroke-linejoin="round"/>
<path d="M0.970093 2.15277C0.970093 2.69437 1.40914 3.13342 1.95074 3.13342C2.49234 3.13342 2.93139 2.69437 2.93139 2.15277C2.93139 1.61117 2.49234 1.17212 1.95074 1.17212C1.40914 1.17212 0.970093 1.61117 0.970093 2.15277Z" stroke="#E6E6E6" stroke-width="1.331" stroke-linecap="round" stroke-linejoin="round"/>
</svg>
