<svg width="4" height="16" viewBox="0 0 4 16" fill="none" xmlns="http://www.w3.org/2000/svg">
<path d="M1.01587 13.9206C1.01587 14.4622 1.45492 14.9012 1.99652 14.9012C2.53812 14.9012 2.97717 14.4622 2.97717 13.9206C2.97717 13.379 2.53812 12.9399 1.99652 12.9399C1.45492 12.9399 1.01587 13.379 1.01587 13.9206Z" fill="#E6E6E6"/>
<path d="M1.01587 8.03667C1.01587 8.57826 1.45492 9.01732 1.99652 9.01732C2.53812 9.01732 2.97717 8.57826 2.97717 8.03667C2.97717 7.49507 2.53812 7.05602 1.99652 7.05602C1.45492 7.05602 1.01587 7.49507 1.01587 8.03667Z" fill="#E6E6E6"/>
<path d="M1.01587 2.15277C1.01587 2.69437 1.45492 3.13342 1.99652 3.13342C2.53812 3.13342 2.97717 2.69437 2.97717 2.15277C2.97717 1.61117 2.53812 1.17212 1.99652 1.17212C1.45492 1.17212 1.01587 1.61117 1.01587 2.15277Z" fill="#E6E6E6"/>
<path d="M1.01587 13.9206C1.01587 14.4622 1.45492 14.9012 1.99652 14.9012C2.53812 14.9012 2.97717 14.4622 2.97717 13.9206C2.97717 13.379 2.53812 12.9399 1.99652 12.9399C1.45492 12.9399 1.01587 13.379 1.01587 13.9206Z" stroke="#E6E6E6" stroke-width="1.331" stroke-linecap="round" stroke-linejoin="round"/>
<path d="M1.01587 8.03667C1.01587 8.57826 1.45492 9.01732 1.99652 9.01732C2.53812 9.01732 2.97717 8.57826 2.97717 8.03667C2.97717 7.49507 2.53812 7.05602 1.99652 7.05602C1.45492 7.05602 1.01587 7.49507 1.01587 8.03667Z" stroke="#E6E6E6" stroke-width="1.331" stroke-linecap="round" stroke-linejoin="round"/>
<path d="M1.01587 2.15277C1.01587 2.69437 1.45492 3.13342 1.99652 3.13342C2.53812 3.13342 2.97717 2.69437 2.97717 2.15277C2.97717 1.61117 2.53812 1.17212 1.99652 1.17212C1.45492 1.17212 1.01587 1.61117 1.01587 2.15277Z" stroke="#E6E6E6" stroke-width="1.331" stroke-linecap="round" stroke-linejoin="round"/>
</svg>
